<?xml version="1.0" encoding="UTF-8"?>
<svg width="300px" height="300px" viewBox="0 0 300 300" version="1.1" xmlns="http://www.w3.org/2000/svg" xmlns:xlink="http://www.w3.org/1999/xlink">
    <!-- Generator: Sketch 51.3 (57544) - http://www.bohemiancoding.com/sketch -->
    <title>SVG300</title>
    <desc>Created with Sketch.</desc>
    <defs></defs>
    <g id="SVG300" stroke="none" stroke-width="1" fill="none" fill-rule="evenodd">
        <path d="M111.339516,239.990412 L111.339516,265.479681 C111.339516,270.879332 105.442314,274.208602 100.746932,271.373875 L88.8925941,263.761152 L86.0568464,262.161072 C85.8543912,262.046143 69.4633932,252.56761 33.8475943,231.969794 L31.018772,230.347099 C28.2297393,228.736816 25.9417119,226.433023 24.360517,223.652349 C22.7967659,220.892678 21.9829878,217.761233 22.0135843,214.64978 L22,151.171284 L22,87.5909123 C22,84.2157016 22.9530052,80.9200878 24.7272279,78.0872911 C26.4822682,75.2451886 29.0236152,72.9097772 31.6650137,71.6327674 L83.1615914,41.8654274 L85.9734497,40.2190746 C86.9088379,39.6830088 86.9088379,39.6830088 88.8108204,38.599369 L138.134914,10.117034 L141.01244,8.41200282 C144.014861,6.68209006 147.411113,5.85923591 150.853917,6.01967517 C154.196803,6.18197091 157.492423,7.27791082 159.802686,8.92267324 L211.127873,38.5887146 L213.971744,40.1936876 C214.177425,40.3128525 231.295439,50.2123559 266.145546,70.3661248 L268.990856,71.9940248 C271.778824,73.6079739 274.061181,75.908745 275.64164,78.6892324 C277.201717,81.4413689 278.01535,84.5724281 277.989133,87.6931291 L278,145.496316 C278.000781,150.838472 272.216418,154.176465 267.59168,151.502665 L245.446767,138.69955 C243.302591,137.459892 241.982039,135.171009 241.982039,132.694216 L241.982039,97.9629262 L196.894033,71.8853201 C196.504414,71.692176 195.626308,71.1910217 193.187811,69.7778356 L149.997881,44.7751251 L105.062363,70.7331058 C104.631614,71.0166143 104.631614,71.0166143 104.373765,71.1804485 C104.269818,71.2444695 103.209588,71.8615872 101.193076,73.0318018 L58.0206778,97.965512 L58.0206778,204.376735 L103.130142,230.463851 C103.418632,230.608265 104.039081,230.963375 106.915282,232.624 L107.844738,233.449251 L108.614862,234.47877 C110.32209,235.783088 111.339516,237.816964 111.339516,239.990412 Z M241.982039,174.477065 C241.982039,169.14019 247.756603,165.802384 252.380949,168.4663 L274.525862,181.223175 C276.675341,182.461411 278,184.753265 278,187.23394 L278,208.354179 C278,210.163954 277.292734,211.902069 276.025885,213.200947 L265.586271,223.845485 C261.671122,228.850577 255.923098,230.84204 250.794263,227.887318 L168.506913,180.177624 L168.486311,270.197692 C168.77549,273.575404 167.380828,276.879964 164.729475,279.01668 C162.134237,281.115033 162.134237,281.115033 149.554058,291.278237 C147.668706,293.025328 145.199894,294 142.617004,294 C136.986633,294 132.422996,289.432788 132.422996,283.801247 L132.436157,159.3188 L118.569364,151.302731 L111.558882,155.334162 C111.224611,155.568426 111.343114,155.499574 104.266925,159.584872 C99.2796373,162.502732 92.9998564,160.958938 90.1310339,156.010479 C89.4491824,154.832313 89.4491824,154.832313 86.2243009,149.259527 L82.3522894,142.580986 C79.4515017,137.575901 81.0001872,131.307297 85.9514779,128.443777 C87.1622603,127.748231 87.1622603,127.748231 92.7609338,124.533667 L109.646069,114.813099 L112.69019,113.094224 C115.933888,110.785869 120.233261,110.575526 123.716915,112.586478 L127.562273,114.82706 L241.982039,180.957011 L241.982039,174.477065 Z" id="Aquamarine" fill="#0EBAC5" fill-rule="nonzero"></path>
    </g>
</svg>